<svg xmlns="http://www.w3.org/2000/svg" xmlns:xlink="http://www.w3.org/1999/xlink" viewBox="0 0 48 48"><defs><linearGradient id="linearGradient3786"><stop offset="0" stop-color="#204a87"/><stop offset="1" stop-color="#6984aa"/></linearGradient><linearGradient id="linearGradient3792" x2="0" y1="-1057.362" y2="-1002.362" gradientUnits="userSpaceOnUse" xlink:href="#linearGradient3786"/></defs><g transform="translate(0 -1004.3622)"><rect width="48" height="48" x="0" y="-1052.362" fill="url(#linearGradient3792)" rx="1.945" transform="scale(1 -1)"/></g><g fill="#fff"><path style="line-height:normal" d="m 9.0750164,1014.3728 c -0.5855364,0.061 -1.0781484,0.6113 -1.0749995,1.2 l 0,25.6246 c 6.25e-5,0.6283 0.5716982,1.1999 1.1999994,1.2 l 29.5999837,0 c 0.628301,-10e-5 1.199937,-0.5717 1.2,-1.2 l 0,-25.6246 c -6.3e-5,-0.6283 -0.571699,-1.1999 -1.2,-1.2 l -29.5999837,0 c -0.041629,0 -0.083371,0 -0.1249999,0 z M 37,1016.3622 c 0.441828,0 1,0.5581 1,1 0,0.4418 -0.558172,1 -1,1 -0.441828,0 -1,-0.5582 -1,-1 0,-0.4419 0.558172,-1 1,-1 z m -27,3 28,0 0,21 -28,0 z" color="#000" transform="translate(0 -1004.3622)"/><path d="m 2,1004.3622 c -1.108,0 -2,0.892 -2,2 l 0,44 c 0,1.108 0.892,2 2,2 l 14.78125,0 12.84375,-48 -27.625,0 z" opacity=".15" transform="translate(0 -1004.3622)"/></g></svg>