<svg xmlns="http://www.w3.org/2000/svg" xmlns:xlink="http://www.w3.org/1999/xlink" viewBox="0 0 48 48"><defs><linearGradient id="linearGradient3755"><stop offset="0" stop-color="#8ebedf"/><stop offset="1" stop-color="#5aade5"/></linearGradient><linearGradient id="linearGradient3772" x2="0" y1="1005.912" y2="1050.461" gradientUnits="userSpaceOnUse" xlink:href="#linearGradient3755"/></defs><g transform="translate(0 -1004.3622)"><rect width="48" height="48" x="0" y="1004.362" fill="url(#linearGradient3772)" rx="0"/><rect width="48" height="48" x="-.063" y="1004.362" fill="none"/><path fill="#fff" d="m 0,1004.3622 0,48 16.78125,0 12.84375,-48 -29.625,0 z" opacity=".15"/></g><g><text style="line-height:125%" x="13.784" y="1034.089" fill="#fff" font-family="Sans" font-size="17.95" letter-spacing="0" transform="matrix(1.3525 0 0 1.3525 -.08019 -1362.53457)" word-spacing="0" xml:space="preserve"><tspan x="13.784" y="1034.089">語</tspan></text></g><g fill="#fff" letter-spacing="0" word-spacing="0" style="line-height:125%"><path d="m 9.8646543,17.711845 -2.4082031,6.530274 4.8251948,0 -2.4169917,-6.530274 m -1.0019531,-1.749023 2.0126948,0 5.000977,13.12207 -1.845703,0 -1.195313,-3.366211 -5.9150386,0 -1.1953125,3.366211 -1.8720703,0 5.0097656,-13.12207" transform="matrix(1.3525 0 0 1.3525 2.7889 -12.50176)"/></g></svg>