<svg xmlns="http://www.w3.org/2000/svg" xmlns:xlink="http://www.w3.org/1999/xlink" viewBox="0 0 48 48"><defs><linearGradient id="linearGradient3708"><stop offset="0" stop-color="#658db6"/><stop offset=".768" stop-color="#527fab"/><stop offset="1" stop-color="#4071a0"/></linearGradient><linearGradient id="linearGradient3801" x2="0" y1="1053.158" y2="1004.847" gradientTransform="translate(0 -2056.7244)" gradientUnits="userSpaceOnUse" xlink:href="#linearGradient3708"/></defs><g transform="translate(0 -1004.3622)"><rect width="48" height="48" x="0" y="-1052.362" fill="url(#linearGradient3801)" rx="1.945" transform="scale(1 -1)"/></g><g fill="#fff"><path d="m 24,1013.119 c -6.890467,0 -12.487179,6.8209 -12.487179,15.2309 0,8.4101 5.596717,15.2554 12.487179,15.2554 6.890461,0 12.487178,-6.8453 12.487178,-15.2554 0,-8.41 -5.596717,-15.2309 -12.487178,-15.2309 z m 0,1.9511 c 5.708305,0 6.25578,5.9439 6.25578,13.2798 6e-6,7.336 -0.758783,13.2921 -6.25578,13.2921 -5.593975,0 -6.255786,-5.9561 -6.255786,-13.2921 0,-7.3359 0.644162,-13.2798 6.255786,-13.2798 z" transform="translate(0 -1004.3622)"/><path d="M 0 0 L 0 48 L 16.78125 48 L 29.625 0 L 0 0 z" opacity=".15" transform="translate(0 -1004.3622) translate(0 1004.3622)"/></g></svg>