<svg xmlns="http://www.w3.org/2000/svg" xmlns:xlink="http://www.w3.org/1999/xlink" viewBox="0 0 48 48"><defs><linearGradient id="linearGradient3777"><stop offset="0" stop-color="#4e9a06"/><stop offset="1" stop-color="#89c056"/></linearGradient><linearGradient id="linearGradient3783" x2="0" y1="1051.994" y2="1003.402" gradientUnits="userSpaceOnUse" xlink:href="#linearGradient3777"/></defs><g transform="translate(0 -1004.3622)"><rect width="48" height="48" x="-.125" y="1004.487" fill="url(#linearGradient3783)" rx="1.945"/></g><g fill="#fff"><path d="M 0 0 L 0 48 L 16.78125 48 L 29.625 0 L 0 0 z" opacity=".15" transform="translate(0 -1004.3622) translate(0 1004.3622)"/><path d="m 28.577293,1013.1627 c -5.510112,-3.1813 -5.542735,4.1467 -5.542735,4.1467 L 24,1028.3622 l 10.054759,-4.6903 c 0,0 6.329891,-3.6922 0.819778,-6.8735 -1.700456,-0.9817 -2.952109,-0.9993 -3.872937,-0.5633 -0.08291,-1.0155 -0.723849,-2.0907 -2.424307,-3.0724 z M 24,1028.3622 l 4.690311,10.0548 c 0,0 3.692245,6.3299 6.87349,0.8197 0.981796,-1.7005 0.999253,-2.952 0.563348,-3.8728 1.01544,-0.083 2.090615,-0.7239 3.072387,-2.4244 3.181246,-5.5101 -4.146711,-5.5428 -4.146711,-5.5428 L 24,1028.3622 z m 0,0 -10.054758,4.6903 c 0,0 -6.329892,3.6922 -0.819779,6.8735 1.700457,0.9817 2.95209,0.9993 3.872938,0.5633 0.0829,1.0155 0.723849,2.0907 2.424307,3.0724 5.510112,3.1813 5.542735,-4.1467 5.542735,-4.1467 L 24,1028.3622 z m 0,0 -4.69031,-10.0548 c 0,0 -3.692245,-6.3299 -6.87349,-0.8197 -0.981796,1.7005 -0.999253,2.952 -0.563348,3.8728 -1.01544,0.083 -2.0906154,0.7239 -3.0723876,2.4244 -3.1812458,5.5101 4.1467116,5.5428 4.1467116,5.5428 L 24,1028.3622 z" transform="translate(0 -1004.3622)"/></g></svg>