<svg xmlns="http://www.w3.org/2000/svg" xmlns:xlink="http://www.w3.org/1999/xlink" viewBox="0 0 48 48"><defs><linearGradient id="linearGradient3795"><stop offset="0" stop-color="#95d868"/><stop offset="1" stop-color="#60bd30"/></linearGradient><linearGradient id="linearGradient3801" x2="0" y1="1053.158" y2="1004.847" gradientTransform="translate(0 -2056.7244)" gradientUnits="userSpaceOnUse" xlink:href="#linearGradient3795"/></defs><g transform="translate(0 -1004.3622)"><rect width="48" height="48" x="0" y="-1052.362" fill="url(#linearGradient3801)" rx="1.945" transform="scale(1 -1)"/></g><g stroke="#fff" transform="matrix(-.74915 0 0 .74915 42.01366 -746.38385)"><rect width="3.769" height="16.806" x="22.208" y="1011.125" fill="#fff" stroke="none" rx="1.578" ry="0"/><path fill="none" stroke-width="4.175" d="m 27.399548,1013.7927 c 6.4743,1.5572 11.2954,7.5241 11.2954,14.6471 l 0,0 c 0,8.3084 -6.5587,15.0434 -14.6494,15.0434 -8.0907,0 -14.6493997,-6.735 -14.6493997,-15.0434 0,-7.1219 4.8195997,-13.0879 11.2922997,-14.6464"/></g><g><path fill="#fff" d="M 0 0 L 0 48 L 16.78125 48 L 29.625 0 L 0 0 z" opacity=".15" transform="translate(0 -1004.3622) translate(0 1004.3622)"/></g></svg>