<svg xmlns="http://www.w3.org/2000/svg" xmlns:xlink="http://www.w3.org/1999/xlink" viewBox="0 0 48 48"><defs><linearGradient id="linearGradient3825"><stop offset="0" stop-color="#f57900"/><stop offset="1" stop-color="#f5a600"/></linearGradient><linearGradient id="linearGradient3833" x2="0" y1="1052.362" y2="1004.362" gradientUnits="userSpaceOnUse" xlink:href="#linearGradient3825"/></defs><g transform="translate(0 -1004.3622)"><rect width="48" height="48" x="0" y="1004.362" fill="url(#linearGradient3833)" rx="1.945"/><path fill="#fff" d="M 0 0 L 0 48 L 16.78125 48 L 29.625 0 L 0 0 z" opacity=".15" transform="translate(0 1004.3622)"/><path style="line-height:normal" fill="#fffffd" d="m 13.081776,1016.4263 c -0.589218,0.062 -1.084928,0.6113 -1.08176,1.2 l 0,21.4735 c 6.3e-5,0.6282 0.575294,1.1998 1.207547,1.1999 l 21.584889,0 c 0.632253,-10e-5 1.207483,-0.5717 1.207547,-1.1999 l 10e-7,-14.7376 -9,-8 -13.792437,0.063 c -0.04189,0 -0.0839,0 -0.125787,0 z m 0.917508,1.9984 11.000716,-0.063 0,8 8.999284,0 0,11.9375 -20,0 z" color="#000"/><path fill="#fff" stroke="#fff" stroke-linejoin="round" stroke-width="2" d="m 33.315428,1014.8821 c 0,0 0.505346,0.018 1.851003,1.3639 1.296946,1.2969 1.363897,1.851 1.363897,1.851 l -12.031519,12.0315 -4.968481,1.7536 1.753582,-4.9685 z"/></g></svg>