<svg xmlns="http://www.w3.org/2000/svg" xmlns:xlink="http://www.w3.org/1999/xlink" viewBox="0 0 48 48"><defs><linearGradient id="linearGradient3810"><stop offset="0" stop-color="#2b2b2b"/><stop offset="1" stop-color="#424242"/></linearGradient><linearGradient id="linearGradient3073" x2="0" y1="1053.158" y2="1028.182" gradientTransform="translate(0 -.00004)" gradientUnits="userSpaceOnUse" xlink:href="#linearGradient3810"/></defs><g><path fill="url(#linearGradient3073)" d="m 1.9375,1004.3622 c -1.077277,0 -1.9375,0.8602 -1.9375,1.9375 l 0,44.125 c 0,1.0773 0.860223,1.9375 1.9375,1.9375 l 44.125,0 c 1.077277,0 1.9375,-0.8602 1.9375,-1.9375 l 0,-44.125 c 0,-1.0773 -0.860223,-1.9375 -1.9375,-1.9375 z" transform="translate(0 -1004.3622)"/></g><g fill="#fff" transform="translate(0 -1004.3622)"><path d="M 37.122747,20.652818 0.35149817,30.505644 10.204325,-6.2656045 z" transform="matrix(.81195 .18072 -.21756 .67444 14.35145 1014.9685)"/><rect width="31.914" height="6.383" x="8.043" y="1037.755" fill-rule="evenodd"/><path d="M 0 0 L 0 48 L 16.78125 48 L 29.625 0 L 0 0 z" opacity=".15" transform="translate(0 1004.3622)"/></g></svg>