<svg xmlns="http://www.w3.org/2000/svg" xmlns:xlink="http://www.w3.org/1999/xlink" width="48" height="48" viewBox="0 0 48 48"><defs><linearGradient id="linearGradient3708"><stop offset="0" stop-color="#658db6"/><stop offset=".768" stop-color="#527fab"/><stop offset="1" stop-color="#4071a0"/></linearGradient><linearGradient id="linearGradient3801" x2="0" y1="1053.158" y2="1004.847" gradientTransform="translate(0 -2056.7244)" gradientUnits="userSpaceOnUse" xlink:href="#linearGradient3708"/></defs><g transform="translate(0 -1004.3622)"><rect width="48" height="48" x="0" y="-1052.362" fill="url(#linearGradient3801)" rx="1.945" transform="scale(1 -1)"/></g><g fill="#fff"><path style="line-height:normal" d="m 21.88261,8 4.471624,0 c 6.707435,0 6.427958,6.847117 6.427958,6.847117 l 0,6.288221 c 0,2.23584 -3.772932,6.288221 -3.772932,6.288221 l 0,2.515288 8.334557,5.146644 L 37.855401,40 22.72104,40 l -12.576441,0 0.558952,-5.170301 8.244557,-4.890852 0,-2.515288 c 0,0 -3.787667,-3.842606 -3.772932,-6.078446 l 0,-6.63772 c 0,0 -2.3e-5,-6.707393 6.707435,-6.707393 z" color="#000"/><path d="M 0,0 0,48 16.78125,48 29.625,0 0,0 z" opacity=".15"/></g></svg>